<svg width="219" height="183" viewBox="0 0 219 183" fill="none" xmlns="http://www.w3.org/2000/svg">
<path d="M0 146.863C0 119.655 22.057 97.5977 49.2656 97.5977H159.226C164.668 97.5977 169.08 102.009 169.08 107.451V133.463C169.08 160.672 147.023 182.729 119.814 182.729H9.85312C4.41139 182.729 0 178.317 0 172.875V146.863Z" fill="white"/>
<path d="M0 146.863C0 119.655 22.057 97.5977 49.2656 97.5977H159.226C164.668 97.5977 169.08 102.009 169.08 107.451V133.463C169.08 160.672 147.023 182.729 119.814 182.729H9.85312C4.41139 182.729 0 178.317 0 172.875V146.863Z" fill="white"/>
<path d="M49.4756 49.8184C49.4756 22.6097 71.5325 0.552734 98.7412 0.552734H208.702C214.144 0.552734 218.555 4.96413 218.555 10.4059V36.4181C218.555 63.6267 196.498 85.6837 169.29 85.6837H59.3287C53.887 85.6837 49.4756 81.2723 49.4756 75.8306V49.8184Z" fill="white"/>
</svg>
